REM DIRINDEX 1\2,1\3
REM DIRNAME cjc036,folder01,folder02
TITLE ""
FILE "NextStage_4th-Part5-P215-1.mp3" MP3
  TRACK 01 AUDIO
    TITLE "0:"
    INDEX 01 00:00:00
  TRACK 02 AUDIO
    TITLE "3:cjc036_2857"
    INDEX 01 00:00:07
  TRACK 03 AUDIO
    TITLE "0:"
    INDEX 01 00:02:43
  TRACK 04 AUDIO
    TITLE "3:cjc036_2858"
    INDEX 01 00:02:45
  TRACK 05 AUDIO
    TITLE "0:"
    INDEX 01 00:03:41
  TRACK 06 AUDIO
    TITLE "2:cjc036_2859"
    INDEX 01 00:03:43
  TRACK 07 AUDIO
    TITLE "0:"
    INDEX 01 00:07:13
  TRACK 08 AUDIO
    TITLE "3:cjc036_2860"
    INDEX 01 00:07:35
  TRACK 09 AUDIO
    TITLE "0:"
    INDEX 01 00:08:28
  TRACK 10 AUDIO
    TITLE "2:cjc036_2861"
    INDEX 01 00:08:30
  TRACK 11 AUDIO
    TITLE "0:"
    INDEX 01 00:12:07
  TRACK 12 AUDIO
    TITLE "3:cjc036_2862"
    INDEX 01 00:12:56
  TRACK 13 AUDIO
    TITLE "0:"
    INDEX 01 00:14:56
  TRACK 14 AUDIO
    TITLE "3:cjc036_2863"
    INDEX 01 00:15:03
  TRACK 15 AUDIO
    TITLE "0:"
    INDEX 01 00:15:74
  TRACK 16 AUDIO
    TITLE "2:cjc036_2864"
    INDEX 01 00:16:00
  TRACK 17 AUDIO
    TITLE "0:"
    INDEX 01 00:19:18
  TRACK 18 AUDIO
    TITLE "3:cjc036_2865"
    INDEX 01 00:19:50
  TRACK 19 AUDIO
    TITLE "0:"
    INDEX 01 00:20:45
  TRACK 20 AUDIO
    TITLE "2:cjc036_2866"
    INDEX 01 00:20:57
  TRACK 21 AUDIO
    TITLE "0:"
    INDEX 01 00:25:39
  TRACK 22 AUDIO
    TITLE "3:cjc036_2867"
    INDEX 01 00:26:15
  TRACK 23 AUDIO
    TITLE "0:"
    INDEX 01 00:28:43
  TRACK 24 AUDIO
    TITLE "3:cjc036_2868"
    INDEX 01 00:28:59
  TRACK 25 AUDIO
    TITLE "0:"
    INDEX 01 00:29:52
  TRACK 26 AUDIO
    TITLE "2:cjc036_2869"
    INDEX 01 00:29:66
  TRACK 27 AUDIO
    TITLE "0:"
    INDEX 01 00:34:22
  TRACK 28 AUDIO
    TITLE "3:cjc036_2870"
    INDEX 01 00:34:49
  TRACK 29 AUDIO
    TITLE "0:"
    INDEX 01 00:35:43
  TRACK 30 AUDIO
    TITLE "2:cjc036_2871"
    INDEX 01 00:35:45
  TRACK 31 AUDIO
    TITLE "0:"
    INDEX 01 00:39:29
  TRACK 32 AUDIO
    TITLE "3:cjc036_2872"
    INDEX 01 00:39:41
  TRACK 33 AUDIO
    TITLE "0:"
    INDEX 01 00:40:58
  TRACK 34 AUDIO
    TITLE "2:cjc036_2873"
    INDEX 01 00:40:66
  TRACK 35 AUDIO
    TITLE "0:"
    INDEX 01 00:44:32
  TRACK 36 AUDIO
    TITLE "3:cjc036_2874"
    INDEX 01 00:44:61
  TRACK 37 AUDIO
    TITLE "0:"
    INDEX 01 00:45:51
  TRACK 38 AUDIO
    TITLE "2:cjc036_2875"
    INDEX 01 00:45:53
  TRACK 39 AUDIO
    TITLE "0:"
    INDEX 01 00:48:22
  TRACK 40 AUDIO
    TITLE "3:cjc036_2876"
    INDEX 01 00:49:00
  TRACK 41 AUDIO
    TITLE "0:"
    INDEX 01 00:51:22
  TRACK 42 AUDIO
    TITLE "3:cjc036_2877"
    INDEX 01 00:51:30
  TRACK 43 AUDIO
    TITLE "0:"
    INDEX 01 00:52:16
  TRACK 44 AUDIO
    TITLE "2:cjc036_2878"
    INDEX 01 00:52:18
  TRACK 45 AUDIO
    TITLE "0:"
    INDEX 01 00:56:06
  TRACK 46 AUDIO
    TITLE "3:cjc036_2879"
    INDEX 01 00:56:27
  TRACK 47 AUDIO
    TITLE "0:"
    INDEX 01 00:57:23
  TRACK 48 AUDIO
    TITLE "2:cjc036_2880"
    INDEX 01 00:57:33
  TRACK 49 AUDIO
    TITLE "0:"
    INDEX 01 01:00:17
  TRACK 50 AUDIO
    TITLE "3:cjc036_2881"
    INDEX 01 01:00:62
  TRACK 51 AUDIO
    TITLE "0:"
    INDEX 01 01:03:18
  TRACK 52 AUDIO
    TITLE "3:cjc036_2882"
    INDEX 01 01:03:24
  TRACK 53 AUDIO
    TITLE "0:"
    INDEX 01 01:04:15
  TRACK 54 AUDIO
    TITLE "2:cjc036_2883"
    INDEX 01 01:04:23
  TRACK 55 AUDIO
    TITLE "0:"
    INDEX 01 01:07:47
  TRACK 56 AUDIO
    TITLE "3:cjc036_2884"
    INDEX 01 01:07:66
  TRACK 57 AUDIO
    TITLE "0:"
    INDEX 01 01:08:56
  TRACK 58 AUDIO
    TITLE "2:cjc036_2885"
    INDEX 01 01:08:58
  TRACK 59 AUDIO
    TITLE "0:"
    INDEX 01 01:12:42
  TRACK 60 AUDIO
    TITLE "3:cjc036_2886"
    INDEX 01 01:13:20
  TRACK 61 AUDIO
    TITLE "0:"
    INDEX 01 01:15:48
  TRACK 62 AUDIO
    TITLE "3:cjc036_2887"
    INDEX 01 01:15:72
  TRACK 63 AUDIO
    TITLE "0:"
    INDEX 01 01:16:60
  TRACK 64 AUDIO
    TITLE "2:cjc036_2888"
    INDEX 01 01:16:69
  TRACK 65 AUDIO
    TITLE "0:"
    INDEX 01 01:19:64
  TRACK 66 AUDIO
    TITLE "3:cjc036_2889"
    INDEX 01 01:19:74
  TRACK 67 AUDIO
    TITLE "0:"
    INDEX 01 01:20:71
  TRACK 68 AUDIO
    TITLE "2:cjc036_2890"
    INDEX 01 01:20:73
  TRACK 69 AUDIO
    TITLE "0:"
    INDEX 01 01:24:69
  TRACK 70 AUDIO
    TITLE "3:cjc036_2891"
    INDEX 01 01:25:47
  TRACK 71 AUDIO
    TITLE "0:"
    INDEX 01 01:28:02
  TRACK 72 AUDIO
    TITLE "3:cjc036_2892"
    INDEX 01 01:28:35
  TRACK 73 AUDIO
    TITLE "0:"
    INDEX 01 01:29:23
  TRACK 74 AUDIO
    TITLE "2:cjc036_2893"
    INDEX 01 01:29:25
  TRACK 75 AUDIO
    TITLE "0:"
    INDEX 01 01:33:38
  TRACK 76 AUDIO
    TITLE "3:cjc036_2894"
    INDEX 01 01:33:58
  TRACK 77 AUDIO
    TITLE "0:"
    INDEX 01 01:34:54
  TRACK 78 AUDIO
    TITLE "2:cjc036_2895"
    INDEX 01 01:34:55
  TRACK 79 AUDIO
    TITLE "0:"
    INDEX 01 01:37:62
  TRACK 80 AUDIO
    TITLE "3:cjc036_2896"
    INDEX 01 01:38:04
  TRACK 81 AUDIO
    TITLE "0:"
    INDEX 01 01:39:06
  TRACK 82 AUDIO
    TITLE "2:cjc036_2897"
    INDEX 01 01:39:08
  TRACK 83 AUDIO
    TITLE "0:"
    INDEX 01 01:41:63
